<?xml version="1.0" encoding="UTF-8" standalone="no" ?>
<!DOCTYPE svg PUBLIC "-//W3C//DTD SVG 1.1//EN" "http://www.w3.org/Graphics/SVG/1.1/DTD/svg11.dtd">
<svg xmlns="http://www.w3.org/2000/svg" xmlns:xlink="http://www.w3.org/1999/xlink" version="1.1" width="1000" height="1000" viewBox="0 0 1000 1000" xml:space="preserve">
<desc>Created with Fabric.js 3.6.6</desc>
<defs>
</defs>
<g transform="matrix(8.94 0 0 4.01 455.01 299.15)"  >
<polygon style="stroke: rgb(0,0,0); stroke-width: 15; stroke-dasharray: none; stroke-linecap: butt; stroke-dashoffset: 0; stroke-linejoin: miter; stroke-miterlimit: 4; fill: rgb(10,10,10); fill-opacity: 0; fill-rule: nonzero; opacity: 1;" vector-effect="non-scaling-stroke"  points="-50,-50 -50,50 50,50 50,-50 " />
</g>
<g transform="matrix(1.12 0.34 -0.31 1.02 466.06 295.98)"  >
<line style="stroke: rgb(0,0,0); stroke-width: 19; stroke-dasharray: none; stroke-linecap: butt; stroke-dashoffset: 0; stroke-linejoin: miter; stroke-miterlimit: 4; fill: rgb(0,0,0); fill-rule: nonzero; opacity: 1;"  x1="77" y1="-308.5" x2="-77" y2="308.5" />
</g>
<g transform="matrix(0.42 0.25 -0.24 0.4 124.36 204.3)"  >
<line style="stroke: rgb(0,0,0); stroke-width: 19; stroke-dasharray: none; stroke-linecap: butt; stroke-dashoffset: 0; stroke-linejoin: miter; stroke-miterlimit: 4; fill: rgb(0,0,0); fill-rule: nonzero; opacity: 1;" vector-effect="non-scaling-stroke"  x1="77" y1="-308.5" x2="-77" y2="308.5" />
</g>
<g transform="matrix(-0.21 0.44 -0.42 -0.21 131.61 401.44)"  >
<line style="stroke: rgb(0,0,0); stroke-width: 19; stroke-dasharray: none; stroke-linecap: butt; stroke-dashoffset: 0; stroke-linejoin: round; stroke-miterlimit: 4; fill: rgb(0,0,0); fill-rule: nonzero; opacity: 1;" vector-effect="non-scaling-stroke"  x1="77" y1="-308.5" x2="-77" y2="308.5" />
</g>
<g transform="matrix(0.4 0.28 -0.27 0.39 779.3 399.05)"  >
<line style="stroke: rgb(0,0,0); stroke-width: 19; stroke-dasharray: none; stroke-linecap: butt; stroke-dashoffset: 0; stroke-linejoin: round; stroke-miterlimit: 4; fill: rgb(0,0,0); fill-rule: nonzero; opacity: 1;" vector-effect="non-scaling-stroke"  x1="77" y1="-308.5" x2="-77" y2="308.5" />
</g>
<g transform="matrix(-0.25 0.42 -0.41 -0.24 785.36 206.31)"  >
<line style="stroke: rgb(0,0,0); stroke-width: 19; stroke-dasharray: none; stroke-linecap: butt; stroke-dashoffset: 0; stroke-linejoin: round; stroke-miterlimit: 4; fill: rgb(0,0,0); fill-rule: nonzero; opacity: 1;" vector-effect="non-scaling-stroke"  x1="77" y1="-308.5" x2="-77" y2="308.5" />
</g>
</svg>